<?xml version="1.0" encoding="utf-8"?>
<svg fill="none" viewBox="0 0 70 70" xmlns="http://www.w3.org/2000/svg">
  <defs>
    <linearGradient id="spark-grad" gradientUnits="userSpaceOnUse" x1="-21.819" y1="-2.619" x2="15.218" y2="46.619">
      <stop offset="0%" stop-color="#5900ff"/>
      <stop offset="38%" stop-color="#9f35f6"/>
      <stop offset="70%" stop-color="#ff2dc7"/>
      <stop offset="100%" stop-color="#ff9c36"/>
    </linearGradient>
  </defs>
  <g>
    <g transform="translate(14,14)">
      <animateTransform repeatCount="indefinite" type="translate" attributeName="transform" dur="1.88s" begin="0s" calcMode="spline" values="14 14; 14 14; 59 59" keyTimes="0; 0.197; 1" keySplines="0 0 1 1; 0.501 0 0 1" fill="freeze"/>
      <g transform="scale(0,0)">
        <animateTransform repeatCount="indefinite" type="scale" attributeName="transform" dur="1.88s" begin="0s" calcMode="spline" values="0 0; 0 0; 1.3 1.3; 0 0" keyTimes="0; 0.197; 0.356; 1" keySplines="0 0 1 1; 0.5 0 0 1; 0.5 0 0 1" fill="freeze"/>
        <g transform="translate(-11,-11)">
          <path d="M11,22C10.6,22,10.2,21.7,10.1,21.3L9,17.1C8.5,15.1,6.9,13.5,4.9,13L0.7,11.9C0.3,11.8,0,11.4,0,11C0,10.6,0.3,10.2,0.7,10.1L4.9,9C6.9,8.5,8.5,6.9,9,4.9L10.1,0.7C10.2,0.3,10.6,0,11,0C11.4,0,11.8,0.3,11.9,0.7L13,4.9C13.5,6.9,15.1,8.5,17.1,9L21.3,10.1C21.7,10.2,22,10.6,22,11C22,11.4,21.7,11.8,21.3,11.9L17.1,13C15.1,13.5,13.5,15.1,13,17.1L12,21.3C11.9,21.7,11.4,22,11,22Z" fill="url(#spark-grad)"/>
        </g>
      </g>
    </g>
  </g>
  <g>
    <g transform="translate(14,46)">
      <animateTransform repeatCount="indefinite" type="translate" attributeName="transform" dur="1.88s" begin="0s" calcMode="spline" values="14 46; 14 46; 31 59; 31 59" keyTimes="0; 0.101; 0.952; 1" keySplines="0 0 1 1; 0.5 0 0 1; 0 0 1 1" fill="freeze"/>
      <g transform="scale(0,0)">
        <animateTransform repeatCount="indefinite" type="scale" attributeName="transform" dur="1.88s" begin="0s" calcMode="spline" values="0 0; 0 0; 1.3 1.3; 0 0; 0 0" keyTimes="0; 0.101; 0.261; 0.952; 1" keySplines="0 0 1 1; 0.5 0 0 1; 0.5 0 0 1; 0 0 1 1" fill="freeze"/>
        <g transform="translate(-11,-11)">
          <path d="M11,22C10.6,22,10.2,21.7,10.1,21.3L9,17.1C8.5,15.1,6.9,13.5,4.9,13L0.7,11.9C0.3,11.8,0,11.4,0,11C0,10.6,0.3,10.2,0.7,10.1L4.9,9C6.9,8.5,8.5,6.9,9,4.9L10.1,0.7C10.2,0.3,10.6,0,11,0C11.4,0,11.8,0.3,11.9,0.7L13,4.9C13.5,6.9,15.1,8.5,17.1,9L21.3,10.1C21.7,10.2,22,10.6,22,11C22,11.4,21.7,11.8,21.3,11.9L17.1,13C15.1,13.5,13.5,15.1,13,17.1L12,21.3C11.9,21.7,11.4,22,11,22Z" fill="url(#spark-grad)"/>
        </g>
      </g>
    </g>
  </g>
  <g>
    <g transform="translate(37,14)">
      <animateTransform repeatCount="indefinite" type="translate" attributeName="transform" dur="1.88s" begin="0s" calcMode="spline" values="37 14; 59 32; 59 32" keyTimes="0; 0.745; 1" keySplines="0.5 0 0 1; 0 0 1 1" fill="freeze"/>
      <g transform="scale(0,0)">
        <animateTransform repeatCount="indefinite" type="scale" attributeName="transform" dur="1.88s" begin="0s" calcMode="spline" values="0 0; 1.3 1.3; 0 0; 0 0" keyTimes="0; 0.16; 0.745; 1" keySplines="0.5 0 0 1; 0.5 0 0 1; 0 0 1 1" fill="freeze"/>
        <g transform="translate(-11,-11)">
          <path d="M11,22C10.6,22,10.2,21.7,10.1,21.3L9,17.1C8.5,15.1,6.9,13.5,4.9,13L0.7,11.9C0.3,11.8,0,11.4,0,11C0,10.6,0.3,10.2,0.7,10.1L4.9,9C6.9,8.5,8.5,6.9,9,4.9L10.1,0.7C10.2,0.3,10.6,0,11,0C11.4,0,11.8,0.3,11.9,0.7L13,4.9C13.5,6.9,15.1,8.5,17.1,9L21.3,10.1C21.7,10.2,22,10.6,22,11C22,11.4,21.7,11.8,21.3,11.9L17.1,13C15.1,13.5,13.5,15.1,13,17.1L12,21.3C11.9,21.7,11.4,22,11,22Z" fill="url(#spark-grad)"/>
        </g>
      </g>
    </g>
  </g>
</svg>
